<?xml version="1.0" encoding="UTF-8"?>
<svg width="752pt" height="752pt" version="1.1" viewBox="0 0 752 752" xmlns="http://www.w3.org/2000/svg">
 <path d="m467.71 305.92c-51.785-51.785-135.74-51.785-187.53 0-51.785 51.781-51.785 135.74 0 187.53 51.785 51.785 135.74 51.785 187.53 0 51.785-51.785 51.785-135.75 0-187.53m-18.148 18.145c41.762 41.762 41.762 109.47 0 151.23-41.762 41.762-109.47 41.762-151.23 0-41.762-41.762-41.762-109.47 0-151.23 41.762-41.762 109.47-41.762 151.23 0m-5.293 5.293c-38.836-38.836-101.81-38.836-140.64 0-38.84 38.84-38.84 101.81 0 140.65 38.836 38.84 101.81 38.84 140.64 0 38.84-38.84 38.84-101.81 0-140.65m-243.88 26.27-11.145 164.1s3.7891 12.555 18.945 12.555c15.152 0 18.941-12.555 18.941-12.555l-11.141-164.1c9.7656-3.6094 15.879-12.773 15.879-12.773v-80.508c0-2.6172-2.1211-4.7383-4.7383-4.7383-2.6133 0-4.7344 2.1211-4.7344 4.7383v52.094s0 4.7344-4.7383 4.7344c-4.7344 0-4.7344-4.7344-4.7344-4.7344v-52.094c0-2.6172-2.1211-4.7383-4.7344-4.7383-2.6172 0-4.7383 2.1211-4.7383 4.7383v52.094s0 4.7344-4.7344 4.7344c-4.7344 0-4.7344-4.7344-4.7344-4.7344v-52.094c0-2.6172-2.1211-4.7383-4.7383-4.7383-2.6133 0-4.7344 2.1211-4.7344 4.7383v80.508s6.1094 9.1641 15.879 12.773zm350.83-135.91c-9.4727-4.7344-33.152 33.152-37.887 80.508-4.7344 47.359 9.4727 71.039 9.4727 71.039l14.262 8.1484-9.5273 140.31s3.7891 12.555 18.945 12.555c15.152 0 18.941-12.555 18.941-12.555z"/>
</svg>
